<svg width="2191" height="1257" viewBox="0 0 2191 1257" fill="none" xmlns="http://www.w3.org/2000/svg">
<g opacity="0.3" filter="url(#filter0_f_13_10)">
<path d="M1682 606.414C1682 778.31 1566.27 917.659 1423.5 917.659C1280.73 917.659 1165 778.31 1165 606.414C1165 434.518 1280.73 295.169 1423.5 295.169C1566.27 295.169 1682 434.518 1682 606.414Z" fill="#0E1A59"/>
</g>
<g opacity="0.3" filter="url(#filter1_f_13_10)">
<path d="M1941 695.341C1941 867.237 1825.27 1006.59 1682.5 1006.59C1539.73 1006.59 1424 867.237 1424 695.341C1424 523.445 1539.73 384.096 1682.5 384.096C1825.27 384.096 1941 523.445 1941 695.341Z" fill="#6850BF"/>
</g>
<g opacity="0.3" filter="url(#filter2_f_13_10)">
<path d="M767 695.341C767 867.237 651.266 1006.59 508.5 1006.59C365.734 1006.59 250 867.237 250 695.341C250 523.445 365.734 384.096 508.5 384.096C651.266 384.096 767 523.445 767 695.341Z" fill="#0E1A59"/>
</g>
<g opacity="0.3" filter="url(#filter3_f_13_10)">
<path d="M1333 487.139C1333 618.107 1256.89 724.278 1163 724.278C1069.11 724.278 993 618.107 993 487.139C993 356.171 1069.11 250 1163 250C1256.89 250 1333 356.171 1333 487.139Z" fill="#0E1A59"/>
</g>
<g opacity="0.3" filter="url(#filter4_f_13_10)">
<path d="M1076 722.866C1076 853.834 999.888 960.005 906 960.005C812.112 960.005 736 853.834 736 722.866C736 591.898 812.112 485.727 906 485.727C999.888 485.727 1076 591.898 1076 722.866Z" fill="#6850BF"/>
</g>
<defs>
<filter id="filter0_f_13_10" x="915" y="45.1693" width="1017" height="1122.49" filterUnits="userSpaceOnUse" color-interpolation-filters="sRGB">
<feFlood flood-opacity="0" result="BackgroundImageFix"/>
<feBlend mode="normal" in="SourceGraphic" in2="BackgroundImageFix" result="shape"/>
<feGaussianBlur stdDeviation="125" result="effect1_foregroundBlur_13_10"/>
</filter>
<filter id="filter1_f_13_10" x="1174" y="134.096" width="1017" height="1122.49" filterUnits="userSpaceOnUse" color-interpolation-filters="sRGB">
<feFlood flood-opacity="0" result="BackgroundImageFix"/>
<feBlend mode="normal" in="SourceGraphic" in2="BackgroundImageFix" result="shape"/>
<feGaussianBlur stdDeviation="125" result="effect1_foregroundBlur_13_10"/>
</filter>
<filter id="filter2_f_13_10" x="0" y="134.096" width="1017" height="1122.49" filterUnits="userSpaceOnUse" color-interpolation-filters="sRGB">
<feFlood flood-opacity="0" result="BackgroundImageFix"/>
<feBlend mode="normal" in="SourceGraphic" in2="BackgroundImageFix" result="shape"/>
<feGaussianBlur stdDeviation="125" result="effect1_foregroundBlur_13_10"/>
</filter>
<filter id="filter3_f_13_10" x="743" y="0" width="840" height="974.278" filterUnits="userSpaceOnUse" color-interpolation-filters="sRGB">
<feFlood flood-opacity="0" result="BackgroundImageFix"/>
<feBlend mode="normal" in="SourceGraphic" in2="BackgroundImageFix" result="shape"/>
<feGaussianBlur stdDeviation="125" result="effect1_foregroundBlur_13_10"/>
</filter>
<filter id="filter4_f_13_10" x="486" y="235.727" width="840" height="974.278" filterUnits="userSpaceOnUse" color-interpolation-filters="sRGB">
<feFlood flood-opacity="0" result="BackgroundImageFix"/>
<feBlend mode="normal" in="SourceGraphic" in2="BackgroundImageFix" result="shape"/>
<feGaussianBlur stdDeviation="125" result="effect1_foregroundBlur_13_10"/>
</filter>
</defs>
</svg>
