<svg width="390" height="686" viewBox="0 0 390 686" fill="none" xmlns="http://www.w3.org/2000/svg">
<g style="mix-blend-mode:luminosity" opacity="0.2">
<g filter="url(#filter0_f_13_11915)">
<path d="M172.689 231.294C172.689 235.509 171.958 238.927 171.057 238.927C170.155 238.927 169.424 235.509 169.424 231.294C169.424 227.079 170.155 223.661 171.057 223.661C171.958 223.661 172.689 227.079 172.689 231.294Z" fill="#D9D9D9" fill-opacity="0.59"/>
</g>
<g filter="url(#filter1_f_13_11915)">
<path d="M172.689 231.294C172.689 235.509 171.958 238.927 171.057 238.927C170.155 238.927 169.424 235.509 169.424 231.294C169.424 227.079 170.155 223.661 171.057 223.661C171.958 223.661 172.689 227.079 172.689 231.294Z" fill="#D9D9D9" fill-opacity="0.59"/>
</g>
<g filter="url(#filter2_f_13_11915)">
<path d="M386.496 530.495C386.496 533.867 385.911 536.601 385.19 536.601C384.469 536.601 383.884 533.867 383.884 530.495C383.884 527.122 384.469 524.388 385.19 524.388C385.911 524.388 386.496 527.122 386.496 530.495Z" fill="#D9D9D9" fill-opacity="0.59"/>
</g>
<g filter="url(#filter3_f_13_11915)">
<path d="M242.543 158.784C242.543 160.892 242.178 162.6 241.727 162.6C241.276 162.6 240.911 160.892 240.911 158.784C240.911 156.676 241.276 154.968 241.727 154.968C242.178 154.968 242.543 156.676 242.543 158.784Z" fill="#D9D9D9" fill-opacity="0.59"/>
</g>
<g filter="url(#filter4_f_13_11915)">
<path d="M123.399 328.992C123.399 330.678 123.107 332.045 122.746 332.045C122.385 332.045 122.093 330.678 122.093 328.992C122.093 327.306 122.385 325.939 122.746 325.939C123.107 325.939 123.399 327.306 123.399 328.992Z" fill="#D9D9D9" fill-opacity="0.59"/>
</g>
<g filter="url(#filter5_f_13_11915)">
<path d="M44.7307 26.7391C44.7307 30.9545 43.9999 34.3718 43.0985 34.3718C42.1972 34.3718 41.4664 30.9545 41.4664 26.7391C41.4664 22.5237 42.1972 19.1064 43.0985 19.1064C43.9999 19.1064 44.7307 22.5237 44.7307 26.7391Z" fill="#D9D9D9" fill-opacity="0.59"/>
</g>
<g filter="url(#filter6_f_13_11915)">
<path d="M128.621 34.3717C128.621 38.5871 127.891 42.0043 126.989 42.0043C126.088 42.0043 125.357 38.5871 125.357 34.3717C125.357 30.1563 126.088 26.739 126.989 26.739C127.891 26.739 128.621 30.1563 128.621 34.3717Z" fill="#D9D9D9" fill-opacity="0.59"/>
</g>
<g filter="url(#filter7_f_13_11915)">
<path d="M224.916 287.776C224.916 291.991 224.185 295.409 223.284 295.409C222.383 295.409 221.652 291.991 221.652 287.776C221.652 283.561 222.383 280.143 223.284 280.143C224.185 280.143 224.916 283.561 224.916 287.776Z" fill="#D9D9D9" fill-opacity="0.59"/>
</g>
<g filter="url(#filter8_f_13_11915)">
<path d="M353.201 206.106C353.201 209.9 352.543 212.976 351.732 212.976C350.92 212.976 350.263 209.9 350.263 206.106C350.263 202.313 350.92 199.237 351.732 199.237C352.543 199.237 353.201 202.313 353.201 206.106Z" fill="#D9D9D9" fill-opacity="0.59"/>
</g>
<g filter="url(#filter9_f_13_11915)">
<path d="M228.18 20.6327C228.18 24.8481 227.45 28.2653 226.548 28.2653C225.647 28.2653 224.916 24.8481 224.916 20.6327C224.916 16.4173 225.647 13 226.548 13C227.45 13 228.18 16.4173 228.18 20.6327Z" fill="#D9D9D9" fill-opacity="0.59"/>
</g>
<g filter="url(#filter10_f_13_11915)">
<path d="M176.265 245.65C175.246 248.128 173.891 249.54 173.239 248.802C172.586 248.065 172.883 245.458 173.902 242.98C174.921 240.502 176.276 239.09 176.929 239.827C177.581 240.564 177.284 243.171 176.265 245.65Z" fill="#D9D9D9" fill-opacity="0.59"/>
</g>
<g filter="url(#filter11_f_13_11915)">
<path d="M176.265 245.65C175.246 248.128 173.891 249.54 173.239 248.802C172.586 248.065 172.883 245.458 173.902 242.98C174.921 240.502 176.276 239.09 176.929 239.827C177.581 240.564 177.284 243.171 176.265 245.65Z" fill="#D9D9D9" fill-opacity="0.59"/>
</g>
<g filter="url(#filter12_f_13_11915)">
<path d="M258.734 596.41C257.919 598.393 256.835 599.522 256.313 598.932C255.791 598.342 256.028 596.257 256.843 594.274C257.658 592.291 258.742 591.162 259.265 591.752C259.787 592.342 259.549 594.427 258.734 596.41Z" fill="#D9D9D9" fill-opacity="0.59"/>
</g>
<g filter="url(#filter13_f_13_11915)">
<path d="M244.365 260.142C243.855 261.382 243.178 262.087 242.852 261.719C242.525 261.35 242.674 260.047 243.183 258.808C243.693 257.568 244.37 256.863 244.696 257.231C245.023 257.6 244.874 258.903 244.365 260.142Z" fill="#D9D9D9" fill-opacity="0.59"/>
</g>
<g filter="url(#filter14_f_13_11915)">
<path d="M116.966 262.783C116.558 263.774 116.016 264.339 115.755 264.044C115.494 263.749 115.613 262.707 116.02 261.715C116.428 260.724 116.97 260.159 117.231 260.454C117.492 260.749 117.373 261.792 116.966 262.783Z" fill="#D9D9D9" fill-opacity="0.59"/>
</g>
<g filter="url(#filter15_f_13_11915)">
<path d="M133.072 20.741C132.053 23.2195 130.698 24.631 130.045 23.8938C129.393 23.1566 129.69 20.5498 130.708 18.0714C131.727 15.5929 133.082 14.1814 133.735 14.9186C134.388 15.6558 134.091 18.2626 133.072 20.741Z" fill="#D9D9D9" fill-opacity="0.59"/>
</g>
<g filter="url(#filter16_f_13_11915)">
<path d="M191.961 93.8323C190.943 96.3108 189.587 97.7223 188.935 96.9851C188.282 96.2479 188.579 93.6411 189.598 91.1627C190.617 88.6842 191.972 87.2727 192.625 88.0099C193.277 88.7471 192.98 91.3539 191.961 93.8323Z" fill="#D9D9D9" fill-opacity="0.59"/>
</g>
<g filter="url(#filter17_f_13_11915)">
<path d="M200.424 321.568C199.405 324.047 198.05 325.458 197.398 324.721C196.745 323.984 197.042 321.377 198.061 318.899C199.08 316.42 200.435 315.009 201.087 315.746C201.74 316.483 201.443 319.09 200.424 321.568Z" fill="#D9D9D9" fill-opacity="0.59"/>
</g>
<g filter="url(#filter18_f_13_11915)">
<path d="M313.039 378.458C312.122 380.689 310.903 381.959 310.315 381.296C309.728 380.632 309.995 378.286 310.912 376.056C311.829 373.825 313.049 372.555 313.636 373.218C314.223 373.882 313.956 376.228 313.039 378.458Z" fill="#D9D9D9" fill-opacity="0.59"/>
</g>
<g filter="url(#filter19_f_13_11915)">
<path d="M267.36 167.171C266.341 169.65 264.986 171.061 264.334 170.324C263.681 169.587 263.978 166.98 264.997 164.502C266.016 162.023 267.371 160.612 268.023 161.349C268.676 162.086 268.379 164.693 267.36 167.171Z" fill="#D9D9D9" fill-opacity="0.59"/>
</g>
<g filter="url(#filter20_f_13_11915)">
<path d="M138.568 274.555C138.568 279.366 137.871 283.266 137.012 283.266C136.152 283.266 135.456 279.366 135.456 274.555C135.456 269.744 136.152 265.844 137.012 265.844C137.871 265.844 138.568 269.744 138.568 274.555Z" fill="#D9D9D9" fill-opacity="0.59"/>
</g>
<g filter="url(#filter21_f_13_11915)">
<path d="M138.568 274.555C138.568 279.366 137.871 283.266 137.012 283.266C136.152 283.266 135.456 279.366 135.456 274.555C135.456 269.744 136.152 265.844 137.012 265.844C137.871 265.844 138.568 269.744 138.568 274.555Z" fill="#D9D9D9" fill-opacity="0.59"/>
</g>
<g filter="url(#filter22_f_13_11915)">
<path d="M342.402 616.031C342.402 619.88 341.844 623 341.157 623C340.469 623 339.912 619.88 339.912 616.031C339.912 612.183 340.469 609.062 341.157 609.062C341.844 609.062 342.402 612.183 342.402 616.031Z" fill="#D9D9D9" fill-opacity="0.59"/>
</g>
<g filter="url(#filter23_f_13_11915)">
<path d="M205.164 191.8C205.164 194.205 204.816 196.155 204.386 196.155C203.956 196.155 203.608 194.205 203.608 191.8C203.608 189.394 203.956 187.444 204.386 187.444C204.816 187.444 205.164 189.394 205.164 191.8Z" fill="#D9D9D9" fill-opacity="0.59"/>
</g>
<g filter="url(#filter24_f_13_11915)">
<path d="M91.5771 386.058C91.5771 387.982 91.2984 389.542 90.9547 389.542C90.6109 389.542 90.3322 387.982 90.3322 386.058C90.3322 384.133 90.6109 382.573 90.9547 382.573C91.2984 382.573 91.5771 384.133 91.5771 386.058Z" fill="#D9D9D9" fill-opacity="0.59"/>
</g>
<g filter="url(#filter25_f_13_11915)">
<path d="M16.5788 41.0983C16.5788 45.9093 15.8821 49.8094 15.0227 49.8094C14.1633 49.8094 13.4666 45.9093 13.4666 41.0983C13.4666 36.2873 14.1633 32.3872 15.0227 32.3872C15.8821 32.3872 16.5788 36.2873 16.5788 41.0983Z" fill="#D9D9D9" fill-opacity="0.59"/>
</g>
<g filter="url(#filter26_f_13_11915)">
<path d="M96.5564 49.809C96.5564 54.62 95.8597 58.5201 95.0003 58.5201C94.1409 58.5201 93.4442 54.62 93.4442 49.809C93.4442 44.998 94.1409 41.0979 95.0003 41.0979C95.8597 41.0979 96.5564 44.998 96.5564 49.809Z" fill="#D9D9D9" fill-opacity="0.59"/>
</g>
<g filter="url(#filter27_f_13_11915)">
<path d="M188.359 339.018C188.359 343.829 187.663 347.729 186.803 347.729C185.944 347.729 185.247 343.829 185.247 339.018C185.247 334.207 185.944 330.307 186.803 330.307C187.663 330.307 188.359 334.207 188.359 339.018Z" fill="#D9D9D9" fill-opacity="0.59"/>
</g>
<g filter="url(#filter28_f_13_11915)">
<path d="M310.66 245.809C310.66 250.139 310.033 253.649 309.259 253.649C308.486 253.649 307.859 250.139 307.859 245.809C307.859 241.479 308.486 237.969 309.259 237.969C310.033 237.969 310.66 241.479 310.66 245.809Z" fill="#D9D9D9" fill-opacity="0.59"/>
</g>
<g filter="url(#filter29_f_13_11915)">
<path d="M191.471 34.1293C191.471 38.9403 190.775 42.8404 189.915 42.8404C189.056 42.8404 188.359 38.9403 188.359 34.1293C188.359 29.3183 189.056 25.4182 189.915 25.4182C190.775 25.4182 191.471 29.3183 191.471 34.1293Z" fill="#D9D9D9" fill-opacity="0.59"/>
</g>
<g filter="url(#filter30_f_13_11915)">
<path d="M219.938 293.157C217.878 296.405 215.808 298.343 215.315 297.484C214.823 296.626 216.095 293.297 218.155 290.049C220.216 286.801 222.286 284.863 222.778 285.722C223.271 286.58 221.999 289.909 219.938 293.157Z" fill="#D9D9D9" fill-opacity="0.59"/>
</g>
<g filter="url(#filter31_f_13_11915)">
<path d="M219.938 293.157C217.878 296.405 215.808 298.343 215.315 297.484C214.823 296.626 216.095 293.297 218.155 290.049C220.216 286.801 222.286 284.863 222.778 285.722C223.271 286.58 221.999 289.909 219.938 293.157Z" fill="#D9D9D9" fill-opacity="0.59"/>
</g>
<g filter="url(#filter32_f_13_11915)">
<path d="M293.545 303.801C292.514 305.425 291.479 306.394 291.233 305.964C290.987 305.535 291.623 303.871 292.653 302.247C293.684 300.622 294.719 299.654 294.965 300.083C295.211 300.512 294.575 302.177 293.545 303.801Z" fill="#D9D9D9" fill-opacity="0.59"/>
</g>
<g filter="url(#filter33_f_13_11915)">
<path d="M145.251 321.504C144.427 322.803 143.599 323.578 143.402 323.235C143.205 322.892 143.714 321.56 144.538 320.261C145.362 318.961 146.19 318.187 146.387 318.53C146.584 318.873 146.076 320.205 145.251 321.504Z" fill="#D9D9D9" fill-opacity="0.59"/>
</g>
<g filter="url(#filter34_f_13_11915)">
<path d="M250.048 13.6946C247.987 16.9428 245.917 18.8802 245.425 18.0218C244.933 17.1635 246.204 13.8346 248.265 10.5864C250.326 7.33824 252.396 5.40088 252.888 6.2592C253.38 7.11751 252.109 10.4465 250.048 13.6946Z" fill="#D9D9D9" fill-opacity="0.59"/>
</g>
<g filter="url(#filter35_f_13_11915)">
<path d="M292.14 99.4578C290.08 102.706 288.01 104.643 287.517 103.785C287.025 102.927 288.297 99.5978 290.357 96.3496C292.418 93.1014 294.488 91.1641 294.98 92.0224C295.473 92.8807 294.201 96.2097 292.14 99.4578Z" fill="#D9D9D9" fill-opacity="0.59"/>
</g>
<g filter="url(#filter36_f_13_11915)">
<path d="M220.854 386.411C218.793 389.659 216.723 391.596 216.231 390.738C215.738 389.88 217.01 386.551 219.071 383.302C221.132 380.054 223.201 378.117 223.694 378.975C224.186 379.834 222.915 383.163 220.854 386.411Z" fill="#D9D9D9" fill-opacity="0.59"/>
</g>
<g filter="url(#filter37_f_13_11915)">
<path d="M330.854 445.635C328.999 448.558 327.137 450.302 326.693 449.529C326.25 448.757 327.395 445.76 329.249 442.837C331.104 439.914 332.967 438.17 333.41 438.943C333.853 439.715 332.709 442.711 330.854 445.635Z" fill="#D9D9D9" fill-opacity="0.59"/>
</g>
<g filter="url(#filter38_f_13_11915)">
<path d="M353.24 183.673C351.179 186.921 349.109 188.858 348.617 188C348.124 187.142 349.396 183.813 351.457 180.564C353.518 177.316 355.587 175.379 356.08 176.237C356.572 177.096 355.301 180.425 353.24 183.673Z" fill="#D9D9D9" fill-opacity="0.59"/>
</g>
</g>
<defs>
<filter id="filter0_f_13_11915" x="154.424" y="208.661" width="33.2642" height="45.2654" filterUnits="userSpaceOnUse" color-interpolation-filters="sRGB">
<feFlood flood-opacity="0" result="BackgroundImageFix"/>
<feBlend mode="normal" in="SourceGraphic" in2="BackgroundImageFix" result="shape"/>
<feGaussianBlur stdDeviation="7.5" result="effect1_foregroundBlur_13_11915"/>
</filter>
<filter id="filter1_f_13_11915" x="154.424" y="208.661" width="33.2642" height="45.2654" filterUnits="userSpaceOnUse" color-interpolation-filters="sRGB">
<feFlood flood-opacity="0" result="BackgroundImageFix"/>
<feBlend mode="normal" in="SourceGraphic" in2="BackgroundImageFix" result="shape"/>
<feGaussianBlur stdDeviation="7.5" result="effect1_foregroundBlur_13_11915"/>
</filter>
<filter id="filter2_f_13_11915" x="368.884" y="509.388" width="32.6116" height="42.2122" filterUnits="userSpaceOnUse" color-interpolation-filters="sRGB">
<feFlood flood-opacity="0" result="BackgroundImageFix"/>
<feBlend mode="normal" in="SourceGraphic" in2="BackgroundImageFix" result="shape"/>
<feGaussianBlur stdDeviation="7.5" result="effect1_foregroundBlur_13_11915"/>
</filter>
<filter id="filter3_f_13_11915" x="238.911" y="152.968" width="5.63226" height="11.6326" filterUnits="userSpaceOnUse" color-interpolation-filters="sRGB">
<feFlood flood-opacity="0" result="BackgroundImageFix"/>
<feBlend mode="normal" in="SourceGraphic" in2="BackgroundImageFix" result="shape"/>
<feGaussianBlur stdDeviation="1" result="effect1_foregroundBlur_13_11915"/>
</filter>
<filter id="filter4_f_13_11915" x="107.093" y="310.939" width="31.3058" height="36.1062" filterUnits="userSpaceOnUse" color-interpolation-filters="sRGB">
<feFlood flood-opacity="0" result="BackgroundImageFix"/>
<feBlend mode="normal" in="SourceGraphic" in2="BackgroundImageFix" result="shape"/>
<feGaussianBlur stdDeviation="7.5" result="effect1_foregroundBlur_13_11915"/>
</filter>
<filter id="filter5_f_13_11915" x="26.4664" y="4.10645" width="33.2642" height="45.2654" filterUnits="userSpaceOnUse" color-interpolation-filters="sRGB">
<feFlood flood-opacity="0" result="BackgroundImageFix"/>
<feBlend mode="normal" in="SourceGraphic" in2="BackgroundImageFix" result="shape"/>
<feGaussianBlur stdDeviation="7.5" result="effect1_foregroundBlur_13_11915"/>
</filter>
<filter id="filter6_f_13_11915" x="110.357" y="11.739" width="33.2642" height="45.2654" filterUnits="userSpaceOnUse" color-interpolation-filters="sRGB">
<feFlood flood-opacity="0" result="BackgroundImageFix"/>
<feBlend mode="normal" in="SourceGraphic" in2="BackgroundImageFix" result="shape"/>
<feGaussianBlur stdDeviation="7.5" result="effect1_foregroundBlur_13_11915"/>
</filter>
<filter id="filter7_f_13_11915" x="206.652" y="265.143" width="33.2642" height="45.2654" filterUnits="userSpaceOnUse" color-interpolation-filters="sRGB">
<feFlood flood-opacity="0" result="BackgroundImageFix"/>
<feBlend mode="normal" in="SourceGraphic" in2="BackgroundImageFix" result="shape"/>
<feGaussianBlur stdDeviation="7.5" result="effect1_foregroundBlur_13_11915"/>
</filter>
<filter id="filter8_f_13_11915" x="335.263" y="184.237" width="32.9381" height="43.7388" filterUnits="userSpaceOnUse" color-interpolation-filters="sRGB">
<feFlood flood-opacity="0" result="BackgroundImageFix"/>
<feBlend mode="normal" in="SourceGraphic" in2="BackgroundImageFix" result="shape"/>
<feGaussianBlur stdDeviation="7.5" result="effect1_foregroundBlur_13_11915"/>
</filter>
<filter id="filter9_f_13_11915" x="209.916" y="-2" width="33.2642" height="45.2654" filterUnits="userSpaceOnUse" color-interpolation-filters="sRGB">
<feFlood flood-opacity="0" result="BackgroundImageFix"/>
<feBlend mode="normal" in="SourceGraphic" in2="BackgroundImageFix" result="shape"/>
<feGaussianBlur stdDeviation="7.5" result="effect1_foregroundBlur_13_11915"/>
</filter>
<filter id="filter10_f_13_11915" x="157.892" y="224.632" width="34.3824" height="39.3662" filterUnits="userSpaceOnUse" color-interpolation-filters="sRGB">
<feFlood flood-opacity="0" result="BackgroundImageFix"/>
<feBlend mode="normal" in="SourceGraphic" in2="BackgroundImageFix" result="shape"/>
<feGaussianBlur stdDeviation="7.5" result="effect1_foregroundBlur_13_11915"/>
</filter>
<filter id="filter11_f_13_11915" x="157.892" y="224.632" width="34.3824" height="39.3662" filterUnits="userSpaceOnUse" color-interpolation-filters="sRGB">
<feFlood flood-opacity="0" result="BackgroundImageFix"/>
<feBlend mode="normal" in="SourceGraphic" in2="BackgroundImageFix" result="shape"/>
<feGaussianBlur stdDeviation="7.5" result="effect1_foregroundBlur_13_11915"/>
</filter>
<filter id="filter12_f_13_11915" x="241.036" y="576.595" width="33.506" height="37.4932" filterUnits="userSpaceOnUse" color-interpolation-filters="sRGB">
<feFlood flood-opacity="0" result="BackgroundImageFix"/>
<feBlend mode="normal" in="SourceGraphic" in2="BackgroundImageFix" result="shape"/>
<feGaussianBlur stdDeviation="7.5" result="effect1_foregroundBlur_13_11915"/>
</filter>
<filter id="filter13_f_13_11915" x="240.678" y="255.133" width="6.19122" height="8.68311" filterUnits="userSpaceOnUse" color-interpolation-filters="sRGB">
<feFlood flood-opacity="0" result="BackgroundImageFix"/>
<feBlend mode="normal" in="SourceGraphic" in2="BackgroundImageFix" result="shape"/>
<feGaussianBlur stdDeviation="1" result="effect1_foregroundBlur_13_11915"/>
</filter>
<filter id="filter14_f_13_11915" x="100.616" y="245.376" width="31.753" height="33.7463" filterUnits="userSpaceOnUse" color-interpolation-filters="sRGB">
<feFlood flood-opacity="0" result="BackgroundImageFix"/>
<feBlend mode="normal" in="SourceGraphic" in2="BackgroundImageFix" result="shape"/>
<feGaussianBlur stdDeviation="7.5" result="effect1_foregroundBlur_13_11915"/>
</filter>
<filter id="filter15_f_13_11915" x="114.699" y="-0.276855" width="34.3824" height="39.3662" filterUnits="userSpaceOnUse" color-interpolation-filters="sRGB">
<feFlood flood-opacity="0" result="BackgroundImageFix"/>
<feBlend mode="normal" in="SourceGraphic" in2="BackgroundImageFix" result="shape"/>
<feGaussianBlur stdDeviation="7.5" result="effect1_foregroundBlur_13_11915"/>
</filter>
<filter id="filter16_f_13_11915" x="173.589" y="72.8145" width="34.3824" height="39.3662" filterUnits="userSpaceOnUse" color-interpolation-filters="sRGB">
<feFlood flood-opacity="0" result="BackgroundImageFix"/>
<feBlend mode="normal" in="SourceGraphic" in2="BackgroundImageFix" result="shape"/>
<feGaussianBlur stdDeviation="7.5" result="effect1_foregroundBlur_13_11915"/>
</filter>
<filter id="filter17_f_13_11915" x="182.051" y="300.551" width="34.3824" height="39.3662" filterUnits="userSpaceOnUse" color-interpolation-filters="sRGB">
<feFlood flood-opacity="0" result="BackgroundImageFix"/>
<feBlend mode="normal" in="SourceGraphic" in2="BackgroundImageFix" result="shape"/>
<feGaussianBlur stdDeviation="7.5" result="effect1_foregroundBlur_13_11915"/>
</filter>
<filter id="filter18_f_13_11915" x="295.004" y="358.042" width="33.9442" height="38.4297" filterUnits="userSpaceOnUse" color-interpolation-filters="sRGB">
<feFlood flood-opacity="0" result="BackgroundImageFix"/>
<feBlend mode="normal" in="SourceGraphic" in2="BackgroundImageFix" result="shape"/>
<feGaussianBlur stdDeviation="7.5" result="effect1_foregroundBlur_13_11915"/>
</filter>
<filter id="filter19_f_13_11915" x="248.987" y="146.153" width="34.3824" height="39.3662" filterUnits="userSpaceOnUse" color-interpolation-filters="sRGB">
<feFlood flood-opacity="0" result="BackgroundImageFix"/>
<feBlend mode="normal" in="SourceGraphic" in2="BackgroundImageFix" result="shape"/>
<feGaussianBlur stdDeviation="7.5" result="effect1_foregroundBlur_13_11915"/>
</filter>
<filter id="filter20_f_13_11915" x="120.456" y="250.844" width="33.1123" height="47.4221" filterUnits="userSpaceOnUse" color-interpolation-filters="sRGB">
<feFlood flood-opacity="0" result="BackgroundImageFix"/>
<feBlend mode="normal" in="SourceGraphic" in2="BackgroundImageFix" result="shape"/>
<feGaussianBlur stdDeviation="7.5" result="effect1_foregroundBlur_13_11915"/>
</filter>
<filter id="filter21_f_13_11915" x="120.456" y="250.844" width="33.1123" height="47.4221" filterUnits="userSpaceOnUse" color-interpolation-filters="sRGB">
<feFlood flood-opacity="0" result="BackgroundImageFix"/>
<feBlend mode="normal" in="SourceGraphic" in2="BackgroundImageFix" result="shape"/>
<feGaussianBlur stdDeviation="7.5" result="effect1_foregroundBlur_13_11915"/>
</filter>
<filter id="filter22_f_13_11915" x="324.912" y="594.062" width="32.4898" height="43.9377" filterUnits="userSpaceOnUse" color-interpolation-filters="sRGB">
<feFlood flood-opacity="0" result="BackgroundImageFix"/>
<feBlend mode="normal" in="SourceGraphic" in2="BackgroundImageFix" result="shape"/>
<feGaussianBlur stdDeviation="7.5" result="effect1_foregroundBlur_13_11915"/>
</filter>
<filter id="filter23_f_13_11915" x="201.608" y="185.444" width="5.55615" height="12.7112" filterUnits="userSpaceOnUse" color-interpolation-filters="sRGB">
<feFlood flood-opacity="0" result="BackgroundImageFix"/>
<feBlend mode="normal" in="SourceGraphic" in2="BackgroundImageFix" result="shape"/>
<feGaussianBlur stdDeviation="1" result="effect1_foregroundBlur_13_11915"/>
</filter>
<filter id="filter24_f_13_11915" x="75.3322" y="367.573" width="31.2449" height="36.969" filterUnits="userSpaceOnUse" color-interpolation-filters="sRGB">
<feFlood flood-opacity="0" result="BackgroundImageFix"/>
<feBlend mode="normal" in="SourceGraphic" in2="BackgroundImageFix" result="shape"/>
<feGaussianBlur stdDeviation="7.5" result="effect1_foregroundBlur_13_11915"/>
</filter>
<filter id="filter25_f_13_11915" x="-1.53345" y="17.3872" width="33.1123" height="47.4221" filterUnits="userSpaceOnUse" color-interpolation-filters="sRGB">
<feFlood flood-opacity="0" result="BackgroundImageFix"/>
<feBlend mode="normal" in="SourceGraphic" in2="BackgroundImageFix" result="shape"/>
<feGaussianBlur stdDeviation="7.5" result="effect1_foregroundBlur_13_11915"/>
</filter>
<filter id="filter26_f_13_11915" x="78.4442" y="26.0979" width="33.1123" height="47.4221" filterUnits="userSpaceOnUse" color-interpolation-filters="sRGB">
<feFlood flood-opacity="0" result="BackgroundImageFix"/>
<feBlend mode="normal" in="SourceGraphic" in2="BackgroundImageFix" result="shape"/>
<feGaussianBlur stdDeviation="7.5" result="effect1_foregroundBlur_13_11915"/>
</filter>
<filter id="filter27_f_13_11915" x="170.247" y="315.307" width="33.1123" height="47.4221" filterUnits="userSpaceOnUse" color-interpolation-filters="sRGB">
<feFlood flood-opacity="0" result="BackgroundImageFix"/>
<feBlend mode="normal" in="SourceGraphic" in2="BackgroundImageFix" result="shape"/>
<feGaussianBlur stdDeviation="7.5" result="effect1_foregroundBlur_13_11915"/>
</filter>
<filter id="filter28_f_13_11915" x="292.859" y="222.969" width="32.801" height="45.6799" filterUnits="userSpaceOnUse" color-interpolation-filters="sRGB">
<feFlood flood-opacity="0" result="BackgroundImageFix"/>
<feBlend mode="normal" in="SourceGraphic" in2="BackgroundImageFix" result="shape"/>
<feGaussianBlur stdDeviation="7.5" result="effect1_foregroundBlur_13_11915"/>
</filter>
<filter id="filter29_f_13_11915" x="173.359" y="10.4182" width="33.1123" height="47.4221" filterUnits="userSpaceOnUse" color-interpolation-filters="sRGB">
<feFlood flood-opacity="0" result="BackgroundImageFix"/>
<feBlend mode="normal" in="SourceGraphic" in2="BackgroundImageFix" result="shape"/>
<feGaussianBlur stdDeviation="7.5" result="effect1_foregroundBlur_13_11915"/>
</filter>
<filter id="filter30_f_13_11915" x="200.209" y="270.518" width="37.6749" height="42.1692" filterUnits="userSpaceOnUse" color-interpolation-filters="sRGB">
<feFlood flood-opacity="0" result="BackgroundImageFix"/>
<feBlend mode="normal" in="SourceGraphic" in2="BackgroundImageFix" result="shape"/>
<feGaussianBlur stdDeviation="7.5" result="effect1_foregroundBlur_13_11915"/>
</filter>
<filter id="filter31_f_13_11915" x="200.209" y="270.518" width="37.6749" height="42.1692" filterUnits="userSpaceOnUse" color-interpolation-filters="sRGB">
<feFlood flood-opacity="0" result="BackgroundImageFix"/>
<feBlend mode="normal" in="SourceGraphic" in2="BackgroundImageFix" result="shape"/>
<feGaussianBlur stdDeviation="7.5" result="effect1_foregroundBlur_13_11915"/>
</filter>
<filter id="filter32_f_13_11915" x="289.18" y="297.981" width="7.83746" height="10.0847" filterUnits="userSpaceOnUse" color-interpolation-filters="sRGB">
<feFlood flood-opacity="0" result="BackgroundImageFix"/>
<feBlend mode="normal" in="SourceGraphic" in2="BackgroundImageFix" result="shape"/>
<feGaussianBlur stdDeviation="1" result="effect1_foregroundBlur_13_11915"/>
</filter>
<filter id="filter33_f_13_11915" x="128.36" y="303.448" width="33.0699" height="34.8679" filterUnits="userSpaceOnUse" color-interpolation-filters="sRGB">
<feFlood flood-opacity="0" result="BackgroundImageFix"/>
<feBlend mode="normal" in="SourceGraphic" in2="BackgroundImageFix" result="shape"/>
<feGaussianBlur stdDeviation="7.5" result="effect1_foregroundBlur_13_11915"/>
</filter>
<filter id="filter34_f_13_11915" x="230.319" y="-8.94409" width="37.6749" height="42.1692" filterUnits="userSpaceOnUse" color-interpolation-filters="sRGB">
<feFlood flood-opacity="0" result="BackgroundImageFix"/>
<feBlend mode="normal" in="SourceGraphic" in2="BackgroundImageFix" result="shape"/>
<feGaussianBlur stdDeviation="7.5" result="effect1_foregroundBlur_13_11915"/>
</filter>
<filter id="filter35_f_13_11915" x="272.411" y="76.8191" width="37.6749" height="42.1692" filterUnits="userSpaceOnUse" color-interpolation-filters="sRGB">
<feFlood flood-opacity="0" result="BackgroundImageFix"/>
<feBlend mode="normal" in="SourceGraphic" in2="BackgroundImageFix" result="shape"/>
<feGaussianBlur stdDeviation="7.5" result="effect1_foregroundBlur_13_11915"/>
</filter>
<filter id="filter36_f_13_11915" x="201.125" y="363.772" width="37.6749" height="42.1692" filterUnits="userSpaceOnUse" color-interpolation-filters="sRGB">
<feFlood flood-opacity="0" result="BackgroundImageFix"/>
<feBlend mode="normal" in="SourceGraphic" in2="BackgroundImageFix" result="shape"/>
<feGaussianBlur stdDeviation="7.5" result="effect1_foregroundBlur_13_11915"/>
</filter>
<filter id="filter37_f_13_11915" x="311.598" y="423.76" width="36.9073" height="40.9524" filterUnits="userSpaceOnUse" color-interpolation-filters="sRGB">
<feFlood flood-opacity="0" result="BackgroundImageFix"/>
<feBlend mode="normal" in="SourceGraphic" in2="BackgroundImageFix" result="shape"/>
<feGaussianBlur stdDeviation="7.5" result="effect1_foregroundBlur_13_11915"/>
</filter>
<filter id="filter38_f_13_11915" x="333.511" y="161.034" width="37.6748" height="42.1692" filterUnits="userSpaceOnUse" color-interpolation-filters="sRGB">
<feFlood flood-opacity="0" result="BackgroundImageFix"/>
<feBlend mode="normal" in="SourceGraphic" in2="BackgroundImageFix" result="shape"/>
<feGaussianBlur stdDeviation="7.5" result="effect1_foregroundBlur_13_11915"/>
</filter>
</defs>
</svg>
